# Blender 3.6.16
# www.blender.org
mtllib Passage.mtl
o Passage
v 58.311623 -0.357504 -43.962013
v 58.872051 5.739069 -43.962013
v 60.531799 11.601355 -43.962013
v 66.854340 21.739582 -43.962013
v 63.227089 17.004066 -43.962013
v 81.788155 30.292038 -43.962013
v 76.316689 28.513733 -43.962013
v 93.168427 30.292038 -43.962013
v 98.639893 28.513733 -43.962013
v 87.478287 30.892498 -43.962013
v 71.274155 25.625923 -43.962013
v 58.872051 -6.454078 -43.962013
v 111.729485 17.004066 -43.962013
v 108.102234 21.739582 -43.962013
v 103.682419 25.625923 -43.962013
v 116.644958 -0.357504 -43.962013
v 116.084526 5.739069 -43.962013
v 116.084526 -6.454078 -43.962013
v 114.424774 11.601355 -43.962013
v 76.316689 28.513729 -13.962013
v 81.788155 30.292034 -13.962013
v 87.478287 30.892494 -13.962013
v 98.639893 28.513729 -13.962013
v 93.168427 30.292034 -13.962013
v 111.729485 17.004065 -13.962013
v 108.102234 21.739582 -13.962013
v 116.644958 -0.357506 -13.962013
v 116.084526 5.739068 -13.962013
v 114.424774 11.601353 -13.962013
v 103.682419 25.625919 -13.962013
v 58.311623 -0.357506 -13.962013
v 58.872051 -6.454080 -13.962013
v 58.872051 5.739068 -13.962013
v 60.531799 11.601353 -13.962013
v 63.227089 17.004065 -13.962013
v 66.854340 21.739582 -13.962013
v 116.084526 -6.454080 -13.962013
v 71.274155 25.625919 -13.962013
v 53.422695 -8.903665 -13.962013
v 52.722694 -8.900357 -14.262012
v 53.422695 -9.400357 -14.262012
v 53.422695 40.099644 -13.962013
v 53.422695 40.599644 -14.262012
v 52.722694 40.099644 -14.262012
v 52.722694 -8.900357 -43.662014
v 53.422695 -8.903665 -43.962013
v 53.422695 -9.400357 -43.662014
v 52.722694 40.099644 -43.662014
v 53.422695 40.599644 -43.662014
v 53.422695 40.099644 -43.962013
v 122.022690 -8.903665 -13.962013
v 122.022690 -9.400357 -14.262012
v 122.722694 -8.900357 -14.262012
v 122.722694 40.099644 -14.262012
v 122.022690 40.599644 -14.262012
v 122.022690 40.099644 -13.962013
v 122.722694 -8.900357 -43.662014
v 122.022690 -9.400357 -43.662014
v 122.022690 -8.903665 -43.962013
v 122.022690 40.099644 -43.962013
v 122.022690 40.599644 -43.662014
v 122.722694 40.099644 -43.662014
v 59.006214 -9.400357 -43.662014
v 59.565624 -8.903796 -43.962013
v 115.950363 -9.400357 -43.662014
v 115.390953 -8.903796 -43.962013
v 59.006210 -9.400357 -14.262012
v 59.565620 -8.903796 -13.962013
v 115.950363 -9.400357 -14.262012
v 115.390953 -8.903796 -13.962013
vn -0.0000 -1.0000 -0.0000
vn 1.0000 -0.0000 -0.0000
vn -1.0000 -0.0000 -0.0000
vn 0.9622 0.2724 -0.0000
vn 0.9830 0.1835 -0.0000
vn -0.0000 1.0000 -0.0000
vn -0.0000 -0.0000 -1.0000
vn -0.2062 -0.9785 -0.0000
vn -0.4022 -0.9155 -0.0000
vn -0.5788 -0.8155 -0.0000
vn -0.7285 -0.6850 -0.0000
vn -0.8470 -0.5316 -0.0000
vn -0.9320 -0.3624 -0.0000
vn -0.9830 -0.1835 -0.0000
vn -0.9830 0.1835 -0.0000
vn -0.9622 0.2724 -0.0000
vn 0.9830 -0.1835 -0.0000
vn 0.9320 -0.3624 -0.0000
vn 0.8470 -0.5316 -0.0000
vn 0.7285 -0.6850 -0.0000
vn 0.5788 -0.8155 -0.0000
vn 0.4022 -0.9155 -0.0000
vn 0.2062 -0.9785 -0.0000
vn -0.3464 -0.4850 0.8030
vn -0.3449 0.4829 0.8049
vn -0.3464 -0.4850 -0.8030
vn -0.3449 0.4829 -0.8049
vn 0.3464 -0.4850 0.8030
vn 0.3449 0.4829 0.8049
vn 0.3464 -0.4850 -0.8030
vn 0.3449 0.4829 -0.8049
vn -0.3939 -0.0000 0.9191
vn -0.5812 -0.8137 -0.0000
vn -0.5812 0.8137 -0.0000
vn 0.3939 -0.0000 0.9191
vn 0.5812 -0.8137 -0.0000
vn -0.0000 0.5145 -0.8575
vn -0.0000 -0.5171 -0.8560
vn -0.3939 -0.0000 -0.9191
vn -0.0000 0.5145 0.8575
vn -0.0000 -0.5171 0.8560
vn 0.5812 0.8137 -0.0000
vn 0.6638 -0.7479 -0.0000
vn 0.3939 -0.0000 -0.9191
vn -0.6638 -0.7479 -0.0000
vn -0.0000 -0.0000 1.0000
vt 0.147441 0.747500
vt 0.127500 0.747500
vt 0.127500 0.502500
vt 0.147441 0.502500
vt 0.377500 0.502500
vt 0.622500 0.502500
vt 0.622500 0.747500
vt 0.377500 0.747500
vt 0.350813 0.502500
vt 0.372500 0.502500
vt 0.372500 0.747500
vt 0.350813 0.747500
vt 0.377500 0.002500
vt 0.622500 0.002500
vt 0.622500 0.247500
vt 0.377500 0.247500
vt 0.294309 0.658932
vt 0.281250 0.658932
vt 0.281250 0.908932
vt 0.294309 0.908932
vt 0.627500 0.502500
vt 0.872500 0.502500
vt 0.872500 0.747500
vt 0.627500 0.747500
vt 0.377483 0.274439
vt 0.377483 0.252500
vt 0.622500 0.252500
vt 0.622500 0.497500
vt 0.377483 0.497500
vt 0.377483 0.473815
vt 0.389731 0.476292
vt 0.420214 0.478294
vt 0.450697 0.476292
vt 0.480009 0.470365
vt 0.507022 0.460739
vt 0.530700 0.447784
vt 0.550131 0.431999
vt 0.564570 0.413990
vt 0.573462 0.394449
vt 0.576464 0.374127
vt 0.573462 0.353805
vt 0.564570 0.334264
vt 0.550131 0.316255
vt 0.530700 0.300470
vt 0.507022 0.287516
vt 0.480009 0.277890
vt 0.450697 0.271962
vt 0.420214 0.269960
vt 0.389731 0.271962
vt 1.000000 0.658932
vt 0.968750 0.658932
vt 0.968750 0.908932
vt 1.000000 0.908932
vt 0.937500 0.658932
vt 0.937500 0.908932
vt 0.906250 0.658932
vt 0.906250 0.908932
vt 0.875000 0.658932
vt 0.875000 0.908932
vt 0.843750 0.658932
vt 0.843750 0.908932
vt 0.812500 0.658932
vt 0.812500 0.908932
vt 0.781250 0.658932
vt 0.781250 0.908932
vt 0.750000 0.658932
vt 0.750000 0.908932
vt 0.718750 0.658932
vt 0.718750 0.908932
vt 0.705691 0.658932
vt 0.705691 0.908932
vt 0.250000 0.658932
vt 0.250000 0.908932
vt 0.218750 0.658932
vt 0.218750 0.908932
vt 0.187500 0.658932
vt 0.187500 0.908932
vt 0.156250 0.658932
vt 0.156250 0.908932
vt 0.125000 0.658932
vt 0.125000 0.908932
vt 0.093750 0.658932
vt 0.093750 0.908932
vt 0.062500 0.658932
vt 0.062500 0.908932
vt 0.031250 0.658932
vt 0.031250 0.908932
vt 0.000000 0.658932
vt 0.000000 0.908932
vt 0.377483 0.000000
vt 0.375000 0.002500
vt 0.622500 0.000000
vt 0.625000 0.002500
vt 0.377483 0.250000
vt 0.375000 0.247500
vt 0.625000 0.247500
vt 0.622500 0.250000
vt 0.372500 0.750000
vt 0.375000 0.747500
vt 0.625000 0.747500
vt 0.622500 0.750000
vt 0.375000 0.502500
vt 0.372500 0.500000
vt 0.622500 0.500000
vt 0.625000 0.502500
vt 0.622500 0.752500
vt 0.377483 0.752500
vt 0.627500 0.500000
vt 0.872500 0.500000
vt 0.375000 0.272441
vt 0.375000 0.252500
vt 0.348815 0.500000
vt 0.872500 0.750000
vt 0.627500 0.750000
vt 0.375000 0.997500
vt 0.375000 0.977559
vt 0.377483 0.975561
vt 0.377483 0.997500
vt 0.348815 0.750000
vt 0.149941 0.500000
vt 0.149941 0.750000
vt 0.348313 0.750000
vt 0.348313 0.500000
vt 0.389731 0.773708
vt 0.377483 0.776185
vt 0.622500 0.997500
vt 0.389731 0.978038
vt 0.420214 0.980040
vt 0.450697 0.978038
vt 0.480009 0.972110
vt 0.507022 0.962484
vt 0.530700 0.949530
vt 0.550131 0.933745
vt 0.564570 0.915736
vt 0.573462 0.896195
vt 0.576464 0.875873
vt 0.573462 0.855551
vt 0.564570 0.836010
vt 0.550131 0.818001
vt 0.530700 0.802216
vt 0.507022 0.789261
vt 0.480009 0.779635
vt 0.450697 0.773708
vt 0.420214 0.771706
s 1
f 67/1/1 41/2/1 47/3/1 63/4/1
f 57/5/2 62/6/2 54/7/2 53/8/2
f 65/9/1 58/10/1 52/11/1 69/12/1
f 40/13/3 44/14/3 48/15/3 45/16/3
f 61/21/6 49/22/6 43/23/6 55/24/6
f 64/25/7 46/26/7 50/27/7 60/28/7 59/29/7 66/30/7 18/31/7 16/32/7 17/33/7 19/34/7 13/35/7 14/36/7 15/37/7 9/38/7 8/39/7 10/40/7 6/41/7 7/42/7 11/43/7 4/44/7 5/45/7 3/46/7 2/47/7 1/48/7 12/49/7
f 39/90/24 40/13/24 41/91/24
f 42/92/25 43/93/25 44/14/25
f 45/16/26 46/94/26 47/95/26
f 48/15/27 49/96/27 50/97/27
f 51/98/28 52/11/28 53/99/28
f 54/7/29 55/100/29 56/101/29
f 57/102/30 58/10/30 59/103/30
f 60/104/31 61/105/31 62/6/31
f 39/90/32 42/92/32 44/14/32 40/13/32
f 40/13/33 45/16/33 47/95/33 41/91/33
f 43/93/34 49/96/34 48/15/34 44/14/34
f 53/8/35 54/7/35 56/106/35 51/107/35
f 52/11/36 58/10/36 57/5/36 53/8/36
f 49/22/37 61/21/37 60/108/37 50/109/37
f 46/26/38 64/25/38 63/110/38 47/111/38
f 58/10/38 65/9/38 66/112/38 59/103/38
f 45/16/39 48/15/39 50/27/39 46/26/39
f 42/113/40 56/114/40 55/24/40 43/23/40
f 41/115/41 67/116/41 68/117/41 39/118/41
f 54/7/42 62/6/42 61/21/42 55/24/42
f 51/98/41 70/119/41 69/12/41 52/11/41
f 64/120/43 68/121/43 67/1/43 63/4/43
f 59/29/44 60/28/44 62/6/44 57/5/44
f 65/9/45 69/12/45 70/122/45 66/123/45
f 37/124/46 70/125/46 51/107/46 56/106/46 42/126/46 39/118/46 68/117/46 32/127/46 31/128/46 33/129/46 34/130/46 35/131/46 36/132/46 38/133/46 20/134/46 21/135/46 22/136/46 24/137/46 23/138/46 30/139/46 26/140/46 25/141/46 29/142/46 28/143/46 27/144/46
f 64/17/4 12/18/5 32/19/5 68/20/4
f 10/50/1 8/51/8 24/52/8 22/53/1
f 8/51/8 9/54/9 23/55/9 24/52/8
f 9/54/9 15/56/10 30/57/10 23/55/9
f 30/57/10 15/56/10 14/58/11 26/59/11
f 26/59/11 14/58/11 13/60/12 25/61/12
f 25/61/12 13/60/12 19/62/13 29/63/13
f 29/63/13 19/62/13 17/64/14 28/65/14
f 28/65/14 17/64/14 16/66/3 27/67/3
f 27/67/3 16/66/3 18/68/15 37/69/15
f 37/69/15 18/68/15 66/70/16 70/71/16
f 12/18/5 1/72/2 31/73/2 32/19/5
f 1/72/2 2/74/17 33/75/17 31/73/2
f 2/74/17 3/76/18 34/77/18 33/75/17
f 3/76/18 5/78/19 35/79/19 34/77/18
f 5/78/19 4/80/20 36/81/20 35/79/19
f 4/80/20 11/82/21 38/83/21 36/81/20
f 11/82/21 7/84/22 20/85/22 38/83/21
f 7/84/22 6/86/23 21/87/23 20/85/22
f 6/86/23 10/88/1 22/89/1 21/87/23
