# Blender 3.6.16
# www.blender.org
mtllib Wall Inner.mtl
o Wall_Inner
v 210.639282 0.250000 298.814056
v 151.369919 0.250000 298.814056
v 151.369919 0.250000 299.505981
v 210.639282 0.250000 299.505981
v 353.659851 0.250000 101.086960
v 353.659851 0.250000 100.395004
v 363.702057 0.250000 111.133652
v 364.393982 0.250000 111.133652
v 355.337708 0.250000 101.427094
v 357.670837 0.250000 102.610886
v 360.152283 0.250000 104.636963
v 362.177948 0.250000 107.119400
v 363.361816 0.250000 109.454056
v 355.551331 0.250000 100.768967
v 358.043396 0.250000 102.027832
v 360.641632 0.250000 104.147766
v 362.761108 0.250000 106.746948
v 364.019958 0.250000 109.240509
v 350.433716 0.250000 100.849030
v 288.567566 0.250000 100.849045
v 288.567566 0.250000 100.157104
v 350.433716 0.250000 100.157089
v 266.474792 0.250000 100.936874
v 266.474792 0.250000 100.244934
v 236.432617 0.250000 70.890198
v 237.124557 0.250000 70.890198
v 258.835266 0.250000 98.961365
v 252.066986 0.250000 95.682739
v 246.327606 0.250000 91.037781
v 241.684341 0.250000 85.297226
v 238.407379 0.250000 78.528778
v 258.621613 0.250000 99.619492
v 251.694412 0.250000 96.265808
v 245.838257 0.250000 91.526993
v 241.101196 0.250000 85.669678
v 237.749207 0.250000 78.742325
v 235.876938 0.250000 41.085510
v 235.876938 0.250000 21.085510
v 236.568878 0.250000 21.085510
v 236.568863 0.250000 41.085510
v -0.063766 0.250000 252.044540
v -0.063782 0.250000 -9.939240
v -0.755722 0.250000 -9.939240
v -0.755707 0.250000 252.044540
v 224.901794 0.250000 -19.981415
v 9.982895 0.250000 -19.981415
v 9.982895 0.250000 -20.673401
v 224.901794 0.250000 -20.673370
v -0.063782 0.250000 -9.939240
v -0.755722 0.250000 -9.939240
v 9.982895 0.250000 -19.981415
v 9.982895 0.250000 -20.673401
v 0.276352 0.250000 -11.617096
v 1.460159 0.250000 -13.950226
v 3.486237 0.250000 -16.431671
v 5.968674 0.250000 -18.457336
v 8.303314 0.250000 -19.641174
v -0.381775 0.250000 -11.830750
v 0.877090 0.250000 -14.322815
v 2.997040 0.250000 -16.920990
v 5.596222 0.250000 -19.040497
v 8.089767 0.250000 -20.299347
v 236.182404 0.250000 9.433594
v 234.671600 0.250000 -2.987732
v 231.785599 0.250000 -13.400543
v 228.336838 0.250000 -19.167206
v 235.492569 0.250000 9.487549
v 233.993500 0.250000 -2.850067
v 231.157501 0.250000 -13.110229
v 227.904724 0.250000 -18.626770
v 363.663788 0.250000 115.204865
v 364.355713 0.250000 115.204865
v 353.617126 0.250000 125.247070
v 353.617126 0.250000 125.938995
v 363.323669 0.250000 116.882721
v 362.139862 0.250000 119.215836
v 360.113770 0.250000 121.697281
v 357.631348 0.250000 123.722946
v 355.296692 0.250000 124.906799
v 363.981812 0.250000 117.096359
v 362.722900 0.250000 119.588425
v 360.602966 0.250000 122.186630
v 358.003784 0.250000 124.306107
v 355.510223 0.250000 125.564972
v 232.928497 0.250000 154.306091
v 233.620422 0.250000 154.306091
v 262.975189 0.250000 124.263901
v 262.975189 0.250000 124.955841
v 234.903992 0.250000 146.666534
v 238.182617 0.250000 139.898270
v 242.827576 0.250000 134.158875
v 248.568146 0.250000 129.515625
v 255.336609 0.250000 126.238663
v 234.245865 0.250000 146.452896
v 237.599564 0.250000 139.525665
v 242.338379 0.250000 133.669540
v 248.195679 0.250000 128.932465
v 255.123062 0.250000 125.580490
v 232.227798 0.250000 252.693024
v 232.227783 0.250000 174.507965
v 232.919724 0.250000 174.507965
v 232.919739 0.250000 252.693024
v 211.755280 0.250000 298.189728
v 216.942673 0.250000 291.767548
v 222.979095 0.250000 281.340027
v 228.225555 0.250000 269.592957
v 231.749695 0.250000 259.074890
v 211.331833 0.250000 297.642487
v 216.376923 0.250000 291.369171
v 222.363251 0.250000 281.024567
v 227.580688 0.250000 269.342133
v 231.078232 0.250000 258.907806
v 56.527794 0.250000 299.092773
v 29.296959 0.250000 299.092773
v 29.296959 0.250000 299.784729
v 56.527794 0.250000 299.784729
v 28.777122 0.250000 299.785339
v 28.777122 0.250000 299.093414
v -0.478226 0.250000 251.165695
v -0.478226 0.250000 251.857635
v 29.563965 0.250000 281.212372
v 28.872040 0.250000 281.212372
v 7.161316 0.250000 253.141205
v 13.929611 0.250000 256.419830
v 19.668991 0.250000 261.064789
v 24.312256 0.250000 266.805328
v 27.589218 0.250000 273.573792
v 7.374954 0.250000 252.483078
v 14.302185 0.250000 255.836761
v 20.158340 0.250000 260.575592
v 24.895401 0.250000 266.432892
v 28.247383 0.250000 273.360260
v 151.369919 55.875584 298.814056
v 210.639282 55.875584 298.814056
v 210.639282 55.875584 299.505981
v 151.369919 55.875584 299.505981
v 353.659851 55.875584 100.395004
v 353.659851 55.875584 101.086960
v 363.702057 55.875584 111.133652
v 364.393982 55.875584 111.133652
v 363.361816 55.875584 109.454056
v 364.019958 55.875584 109.240509
v 355.337708 55.875584 101.427094
v 357.670837 55.875584 102.610886
v 360.152283 55.875584 104.636963
v 362.177948 55.875584 107.119400
v 355.551331 55.875584 100.768967
v 358.043396 55.875584 102.027832
v 360.641632 55.875584 104.147766
v 362.761108 55.875584 106.746948
v 350.433716 55.875584 100.849030
v 288.567566 55.875584 100.849045
v 288.567566 55.875584 100.157104
v 350.433716 55.875584 100.157089
v 266.474792 55.875584 100.936874
v 266.474792 55.875584 100.244934
v 237.124557 55.875584 70.890198
v 236.432617 55.875584 70.890198
v 238.407379 55.875584 78.528778
v 237.749207 55.875584 78.742325
v 258.835266 55.875584 98.961365
v 252.066986 55.875584 95.682739
v 246.327606 55.875584 91.037781
v 241.684341 55.875584 85.297226
v 258.621613 55.875584 99.619492
v 251.694412 55.875584 96.265808
v 245.838257 55.875584 91.526993
v 241.101196 55.875584 85.669678
v 235.876938 55.875584 41.085510
v 235.876938 55.875584 21.085510
v 236.568878 55.875584 21.085510
v 236.568863 55.875584 41.085510
v -0.063782 55.875584 -9.939240
v -0.063766 55.875584 252.044540
v -0.755707 55.875584 252.044540
v -0.755722 55.875584 -9.939240
v 224.901794 55.875584 -19.981415
v 9.982895 55.875584 -19.981415
v 9.982895 55.875584 -20.673401
v 224.901794 55.875584 -20.673370
v -0.755722 55.875584 -9.939240
v -0.063782 55.875584 -9.939240
v 9.982895 55.875584 -19.981415
v 9.982895 55.875584 -20.673401
v 8.303314 55.875584 -19.641174
v 8.089767 55.875584 -20.299347
v 0.276352 55.875584 -11.617096
v 1.460159 55.875584 -13.950226
v 3.486237 55.875584 -16.431671
v 5.968674 55.875584 -18.457336
v -0.381775 55.875584 -11.830750
v 0.877090 55.875584 -14.322815
v 2.997040 55.875584 -16.920990
v 5.596222 55.875584 -19.040497
v 228.336838 55.875584 -19.167206
v 227.904724 55.875584 -18.626770
v 236.182404 55.875584 9.433594
v 234.671600 55.875584 -2.987732
v 231.785599 55.875584 -13.400543
v 235.492569 55.875584 9.487549
v 233.993500 55.875584 -2.850067
v 231.157501 55.875584 -13.110229
v 364.355713 55.875584 115.204865
v 363.663788 55.875584 115.204865
v 353.617126 55.875584 125.247070
v 353.617126 55.875584 125.938995
v 355.296692 55.875584 124.906799
v 355.510223 55.875584 125.564972
v 363.323669 55.875584 116.882721
v 362.139862 55.875584 119.215836
v 360.113770 55.875584 121.697281
v 357.631348 55.875584 123.722946
v 363.981812 55.875584 117.096359
v 362.722900 55.875584 119.588425
v 360.602966 55.875584 122.186630
v 358.003784 55.875584 124.306107
v 232.928497 55.875584 154.306091
v 233.620422 55.875584 154.306091
v 262.975189 55.875584 124.955841
v 262.975189 55.875584 124.263901
v 255.336609 55.875584 126.238663
v 255.123062 55.875584 125.580490
v 234.903992 55.875584 146.666534
v 238.182617 55.875584 139.898270
v 242.827576 55.875584 134.158875
v 248.568146 55.875584 129.515625
v 234.245865 55.875584 146.452896
v 237.599564 55.875584 139.525665
v 242.338379 55.875584 133.669540
v 248.195679 55.875584 128.932465
v 232.227798 55.875584 252.693024
v 232.227783 55.875584 174.507965
v 232.919724 55.875584 174.507965
v 232.919739 55.875584 252.693024
v 231.749695 55.875584 259.074890
v 231.078232 55.875584 258.907806
v 211.755280 55.875584 298.189728
v 216.942673 55.875584 291.767548
v 222.979095 55.875584 281.340027
v 228.225555 55.875584 269.592957
v 211.331833 55.875584 297.642487
v 216.376923 55.875584 291.369171
v 222.363251 55.875584 281.024567
v 227.580688 55.875584 269.342133
v 29.296959 55.875584 299.092773
v 56.527794 55.875584 299.092773
v 56.527794 55.875584 299.784729
v 29.296959 55.875584 299.784729
v 28.777122 55.875584 299.785339
v 28.777122 55.875584 299.093414
v -0.478226 55.875584 251.165695
v -0.478226 55.875584 251.857635
v 28.872040 55.875584 281.212372
v 29.563965 55.875584 281.212372
v 27.589218 55.875584 273.573792
v 28.247383 55.875584 273.360260
v 7.161316 55.875584 253.141205
v 13.929611 55.875584 256.419830
v 19.668991 55.875584 261.064789
v 24.312256 55.875584 266.805328
v 7.374954 55.875584 252.483078
v 14.302185 55.875584 255.836761
v 20.158340 55.875584 260.575592
v 24.895401 55.875584 266.432892
vn -0.8918 -0.0000 -0.4525
vn -0.9801 -0.0000 -0.1987
vn 0.9994 -0.0000 0.0347
vn -0.0000 -0.0000 1.0000
vn -0.9994 -0.0000 -0.0347
vn 1.0000 -0.0000 -0.0000
vn -1.0000 -0.0000 -0.0000
vn -0.1654 -0.0000 -0.9862
vn 0.1656 -0.0000 0.9862
vn -0.4112 -0.0000 0.9115
vn 0.4016 -0.0000 -0.9158
vn -0.9511 -0.0000 -0.3088
vn -0.9002 -0.0000 0.4356
vn 0.1938 -0.0000 0.9810
vn -0.7775 -0.0000 0.6288
vn -0.1986 -0.0000 -0.9801
vn -0.6290 -0.0000 0.7774
vn -0.4358 -0.0000 0.9001
vn -0.0000 -0.0000 -1.0000
vn 0.9002 -0.0000 -0.4356
vn -0.1654 -0.0000 0.9862
vn 0.7775 -0.0000 -0.6288
vn 0.9001 -0.0000 -0.4358
vn 0.6290 -0.0000 -0.7774
vn 0.7775 -0.0000 -0.6289
vn 0.4358 -0.0000 -0.9001
vn 0.6291 -0.0000 -0.7773
vn 0.1654 -0.0000 -0.9862
vn 0.4360 -0.0000 -0.9000
vn -0.9001 -0.0000 0.4358
vn 0.1657 -0.0000 -0.9862
vn -0.7775 -0.0000 0.6289
vn -0.6291 -0.0000 0.7773
vn -0.4360 -0.0000 0.9000
vn -0.1657 -0.0000 0.9862
vn -0.0736 -0.0000 0.9973
vn 0.0736 -0.0000 -0.9973
vn -0.0108 -0.0000 0.9999
vn 1.0000 -0.0000 0.0094
vn 0.0108 -0.0000 -0.9999
vn -1.0000 -0.0000 -0.0094
vn 0.0040 -0.0000 1.0000
vn -0.0040 -0.0000 -1.0000
vn -0.9998 -0.0000 0.0186
vn 0.8927 -0.0000 -0.4507
vn 0.9998 -0.0000 -0.0186
vn 0.7750 -0.0000 -0.6320
vn -0.9862 -0.0000 0.1654
vn 0.6322 -0.0000 -0.7748
vn 0.9862 -0.0000 -0.1656
vn 0.4509 -0.0000 -0.8926
vn -0.8919 -0.0000 0.4523
vn 0.9862 -0.0000 -0.1654
vn -0.7748 -0.0000 0.6322
vn -0.9862 -0.0000 0.1656
vn -0.6325 -0.0000 0.7746
vn -0.0000 1.0000 -0.0000
vn -0.7746 -0.0000 -0.6325
vn -0.6322 -0.0000 -0.7748
vn -0.4523 -0.0000 -0.8919
vn 0.9810 -0.0000 0.1939
vn 0.8926 -0.0000 0.4509
vn 0.7748 -0.0000 0.6322
vn 0.1985 -0.0000 0.9801
vn 0.6320 -0.0000 0.7750
vn -0.1938 -0.0000 -0.9810
vn 0.4507 -0.0000 0.8927
vn 0.9836 -0.0000 0.1803
vn -0.9833 -0.0000 -0.1819
vn 0.9995 -0.0000 -0.0332
vn 0.9927 -0.0000 -0.1207
vn 0.9637 -0.0000 -0.2671
vn 0.8582 -0.0000 -0.5133
vn -0.9995 -0.0000 0.0331
vn -0.9927 -0.0000 0.1206
vn -0.9639 -0.0000 0.2664
vn 0.9801 -0.0000 0.1987
vn -0.8614 -0.0000 0.5079
vn 0.8918 -0.0000 0.4525
vn 0.9862 -0.0000 0.1657
vn 0.7746 -0.0000 0.6324
vn 0.9000 -0.0000 0.4360
vn 0.6322 -0.0000 0.7748
vn 0.7773 -0.0000 0.6291
vn 0.4523 -0.0000 0.8919
vn 0.6289 -0.0000 0.7775
vn -0.9810 -0.0000 -0.1940
vn 0.4358 -0.0000 0.9001
vn -0.8926 -0.0000 -0.4509
vn -0.9862 -0.0000 -0.1654
vn -0.7748 -0.0000 -0.6322
vn -0.9001 -0.0000 -0.4358
vn -0.6320 -0.0000 -0.7750
vn 0.9990 -0.0000 0.0440
vn -0.7774 -0.0000 -0.6290
vn -0.4507 -0.0000 -0.8927
vn -1.0000 -0.0000 -0.0051
vn -0.6288 -0.0000 -0.7775
vn -0.4356 -0.0000 -0.9002
vn 0.7627 -0.0000 0.6467
vn -0.9801 -0.0000 0.1985
vn 0.7779 -0.0000 0.6284
vn 0.9810 -0.0000 -0.1938
vn 0.8654 -0.0000 0.5010
vn 0.9131 -0.0000 0.4078
vn 0.9482 -0.0000 0.3177
vn -0.8608 -0.0000 -0.5089
vn -0.7793 -0.0000 -0.6267
vn -0.8655 -0.0000 -0.5009
vn -0.9131 -0.0000 -0.4078
vn -0.9482 -0.0000 -0.3178
vn -0.4525 -0.0000 0.8918
vt 0.625000 0.458333
vt 0.625000 0.416667
vt 0.625000 0.500000
vt 0.866351 0.500000
vt 0.000000 0.000000
vt 0.625000 0.250000
vt 0.633649 0.500000
vt 0.633649 0.750000
vt 0.672433 0.500000
vt 0.625000 0.000000
vt 0.625000 0.050000
vt 0.866351 0.750000
vt 0.866351 0.700000
vt 0.666667 0.500000
vt 0.827567 0.500000
vt 0.625000 0.375000
vt 0.625000 0.291667
vt 0.625000 0.333333
vt 0.711216 0.500000
vt 0.625000 0.750000
vt 0.750000 0.500000
vt 0.788784 0.500000
vt 0.788784 0.500000
vt 0.625000 0.333333
vt 0.875000 0.500000
vt 0.833333 0.500000
vt 0.791667 0.500000
vt 0.708333 0.500000
vt 0.875000 0.750000
vt 0.791667 0.500000
vt 0.875000 0.700000
vt 0.875000 0.650000
vt 0.866351 0.650000
vt 0.875000 0.600000
vt 0.866351 0.600000
vt 0.875000 0.550000
vt 0.866351 0.550000
vt 0.833333 0.750000
vt 0.827567 0.750000
vt 0.791667 0.750000
vt 0.788784 0.750000
vt 0.750000 0.750000
vt 0.708333 0.750000
vt 0.711216 0.750000
vt 0.666667 0.750000
vt 0.672433 0.750000
vt 0.633649 0.506383
vt 0.625000 0.506383
vt 0.625000 0.125000
vt 0.625000 0.200000
vt 0.625000 0.150000
vt 0.625000 0.100000
vt 0.625000 0.625000
vt 0.625000 0.250000
s 0
f 75/1/1 76/2/1 210/2/1 209/1/1
f 71/3/2 75/1/2 209/1/2 204/3/2
f 101/4/3 86/4/3 218/4/3 233/4/3
f 50/5/4 49/5/4 182/5/4 181/5/4
f 85/6/5 100/6/5 232/6/5 217/6/5
f 116/5/6 113/5/6 246/5/6 247/5/6
f 114/3/7 115/7/7 248/7/7 245/3/7
f 115/7/4 116/8/4 247/8/4 248/7/4
f 87/3/8 98/1/8 222/1/8 220/3/8
f 93/9/9 88/7/9 219/7/9 221/9/9
f 45/10/10 70/11/10 196/11/10 177/10/10
f 102/12/6 101/4/6 233/4/6 234/12/6
f 66/13/11 48/12/11 180/12/11 195/13/11
f 14/9/12 9/14/12 143/14/12 147/9/12
f 36/1/13 35/2/13 168/2/13 160/1/13
f 74/4/14 84/15/14 208/15/14 206/4/14
f 35/2/15 34/16/15 167/16/15 168/2/15
f 47/5/7 46/5/7 178/5/7 179/5/7
f 79/17/16 73/6/16 205/6/16 207/17/16
f 34/16/17 33/18/17 166/18/17 167/16/17
f 33/18/18 32/17/18 165/17/18 166/18/18
f 48/12/19 47/4/19 179/4/19 180/12/19
f 132/1/20 131/2/20 264/2/20 256/1/20
f 32/17/21 23/6/21 155/6/21 165/17/21
f 131/2/22 130/16/22 263/16/22 264/2/22
f 30/19/23 31/9/23 159/9/23 164/19/23
f 113/20/19 114/3/19 245/3/19 246/20/19
f 130/16/24 129/18/24 262/18/24 263/16/24
f 29/21/25 30/19/25 164/19/25 163/21/25
f 129/18/26 128/17/26 261/17/26 262/18/26
f 28/22/27 29/21/27 163/21/27 162/22/27
f 128/17/28 119/6/28 251/6/28 261/17/28
f 27/15/29 28/22/29 162/22/29 161/15/29
f 126/19/30 127/9/30 255/9/30 260/19/30
f 24/4/31 27/15/31 161/15/31 156/4/31
f 125/21/32 126/19/32 260/19/32 259/21/32
f 124/22/33 125/21/33 259/21/33 258/22/33
f 123/15/34 124/22/34 258/22/34 257/15/34
f 120/4/35 123/15/35 257/15/35 252/4/35
f 100/6/7 99/10/7 231/10/7 232/6/7
f 46/6/4 45/10/4 177/10/4 178/6/4
f 19/10/36 5/3/36 138/3/36 151/10/36
f 6/7/37 22/12/37 154/12/37 137/7/37
f 88/7/38 74/4/38 206/4/38 219/7/38
f 44/5/4 41/5/4 174/5/4 175/5/4
f 72/7/39 8/4/39 140/4/39 203/7/39
f 73/6/40 87/3/40 220/3/40 205/6/40
f 42/5/19 43/5/19 176/5/19 173/5/19
f 7/6/41 71/3/41 204/3/41 139/6/41
f 43/7/7 44/8/7 175/8/7 176/7/7
f 23/6/42 20/6/42 152/6/42 155/6/42
f 21/4/43 24/4/43 156/4/43 153/4/43
f 41/20/6 42/3/6 173/3/6 174/20/6
f 37/10/44 25/3/44 158/3/44 169/10/44
f 18/15/45 17/23/45 150/23/45 142/15/45
f 26/7/46 40/12/46 172/12/46 157/7/46
f 17/23/47 16/21/47 149/21/47 150/23/47
f 25/3/48 36/1/48 160/1/48 158/3/48
f 16/21/49 15/19/49 148/19/49 149/21/49
f 31/9/50 26/7/50 157/7/50 159/9/50
f 15/19/51 14/9/51 147/9/51 148/19/51
f 12/24/52 13/17/52 141/17/52 146/24/52
f 121/3/53 132/1/53 256/1/53 254/3/53
f 11/16/54 12/24/54 146/24/54 145/16/54
f 127/9/55 122/7/55 253/7/55 255/9/55
f 10/2/56 11/16/56 145/16/56 144/2/56
f 133/3/57 136/7/57 135/8/57 134/20/57
f 139/25/57 140/4/57 142/15/57 141/26/57
f 141/26/57 142/15/57 150/23/57 146/27/57
f 146/27/57 150/23/57 149/21/57 145/21/57
f 145/21/57 149/21/57 148/19/57 144/28/57
f 144/28/57 148/19/57 147/9/57 143/14/57
f 153/4/57 152/25/57 151/29/57 154/12/57
f 157/7/57 158/3/57 160/14/57 159/9/57
f 159/9/57 160/14/57 168/28/57 164/19/57
f 164/19/57 168/28/57 167/21/57 163/21/57
f 163/21/57 167/21/57 166/30/57 162/22/57
f 162/22/57 166/30/57 165/26/57 161/15/57
f 161/15/57 165/26/57 155/25/57 156/4/57
f 171/4/57 170/25/57 169/29/57 172/12/57
f 173/3/57 176/7/57 175/8/57 174/20/57
f 179/4/57 178/25/57 177/29/57 180/12/57
f 183/25/57 184/4/57 186/15/57 185/26/57
f 185/26/57 186/15/57 194/23/57 190/27/57
f 190/27/57 194/23/57 193/21/57 189/21/57
f 189/21/57 193/21/57 192/19/57 188/28/57
f 188/28/57 192/19/57 191/9/57 187/14/57
f 187/14/57 191/9/57 181/7/57 182/3/57
f 180/12/57 177/29/57 196/31/57 195/13/57
f 195/13/57 196/31/57 202/32/57 199/33/57
f 199/33/57 202/32/57 201/34/57 198/35/57
f 198/35/57 201/34/57 200/36/57 197/37/57
f 197/37/57 200/36/57 170/25/57 171/4/57
f 172/12/57 169/29/57 158/3/57 157/7/57
f 156/4/57 155/25/57 152/25/57 153/4/57
f 154/12/57 151/29/57 138/3/57 137/7/57
f 205/25/57 206/4/57 208/15/57 207/26/57
f 207/26/57 208/15/57 216/23/57 212/27/57
f 212/27/57 216/23/57 215/21/57 211/21/57
f 211/21/57 215/21/57 214/19/57 210/28/57
f 210/28/57 214/19/57 213/9/57 209/14/57
f 209/14/57 213/9/57 203/7/57 204/3/57
f 204/3/57 203/7/57 140/4/57 139/25/57
f 219/7/57 220/3/57 222/14/57 221/9/57
f 221/9/57 222/14/57 230/28/57 226/19/57
f 226/19/57 230/28/57 229/21/57 225/21/57
f 225/21/57 229/21/57 228/30/57 224/22/57
f 224/22/57 228/30/57 227/26/57 223/15/57
f 223/15/57 227/26/57 217/25/57 218/4/57
f 220/3/57 219/7/57 206/4/57 205/25/57
f 233/4/57 232/25/57 231/29/57 234/12/57
f 232/25/57 233/4/57 218/4/57 217/25/57
f 234/12/57 231/29/57 236/38/57 235/39/57
f 235/39/57 236/38/57 244/40/57 240/41/57
f 240/41/57 244/40/57 243/42/57 239/42/57
f 239/42/57 243/42/57 242/43/57 238/44/57
f 238/44/57 242/43/57 241/45/57 237/46/57
f 237/46/57 241/45/57 134/20/57 135/8/57
f 245/3/57 248/7/57 247/8/57 246/20/57
f 253/7/57 254/3/57 256/14/57 255/9/57
f 255/9/57 256/14/57 264/28/57 260/19/57
f 260/19/57 264/28/57 263/21/57 259/21/57
f 259/21/57 263/21/57 262/30/57 258/22/57
f 258/22/57 262/30/57 261/26/57 257/15/57
f 257/15/57 261/26/57 251/25/57 252/4/57
f 254/3/57 253/7/57 249/47/57 250/48/57
f 117/47/6 118/48/6 250/48/6 249/47/6
f 76/2/58 77/16/58 211/16/58 210/2/58
f 77/16/59 78/24/59 212/24/59 211/16/59
f 78/24/60 79/17/60 207/17/60 212/24/60
f 51/5/6 52/5/6 184/5/6 183/5/6
f 80/9/61 72/7/61 203/7/61 213/9/61
f 81/19/62 80/9/62 213/9/62 214/19/62
f 82/21/63 81/19/63 214/19/63 215/21/63
f 57/17/64 51/6/64 183/6/64 185/17/64
f 83/23/65 82/21/65 215/21/65 216/23/65
f 1/20/19 2/3/19 133/3/19 134/20/19
f 52/4/66 62/15/66 186/15/66 184/4/66
f 84/15/67 83/23/67 216/23/67 208/15/67
f 107/39/68 102/12/68 234/12/68 235/39/68
f 99/10/69 112/49/69 236/49/69 231/10/69
f 39/4/70 63/37/70 197/37/70 171/4/70
f 63/37/71 64/35/71 198/35/71 197/37/71
f 64/35/72 65/33/72 199/33/72 198/35/72
f 65/33/73 66/13/73 195/13/73 199/33/73
f 67/50/74 38/6/74 170/6/74 200/50/74
f 20/6/4 19/10/4 151/10/4 152/6/4
f 3/7/4 4/8/4 135/8/4 136/7/4
f 68/51/75 67/50/75 200/50/75 201/51/75
f 69/52/76 68/51/76 201/51/76 202/52/76
f 49/3/77 53/1/77 187/1/77 182/3/77
f 2/5/7 3/5/7 136/5/7 133/5/7
f 70/11/78 69/52/78 202/52/78 196/11/78
f 53/1/79 54/2/79 188/2/79 187/1/79
f 86/4/80 89/15/80 223/15/80 218/4/80
f 54/2/81 55/16/81 189/16/81 188/2/81
f 89/15/82 90/22/82 224/22/82 223/15/82
f 55/16/83 56/24/83 190/24/83 189/16/83
f 90/22/84 91/21/84 225/21/84 224/22/84
f 56/24/85 57/17/85 185/17/85 190/24/85
f 91/21/86 92/19/86 226/19/86 225/21/86
f 58/9/87 50/7/87 181/7/87 191/9/87
f 92/19/88 93/9/88 221/9/88 226/19/88
f 59/19/89 58/9/89 191/9/89 192/19/89
f 94/17/90 85/6/90 217/6/90 227/17/90
f 60/21/91 59/19/91 192/19/91 193/21/91
f 95/18/92 94/17/92 227/17/92 228/18/92
f 61/23/93 60/21/93 193/21/93 194/23/93
f 118/48/94 121/3/94 254/3/94 250/48/94
f 96/16/95 95/18/95 228/18/95 229/16/95
f 62/15/96 61/23/96 194/23/96 186/15/96
f 122/7/97 117/47/97 249/47/97 253/7/97
f 97/2/98 96/16/98 229/16/98 230/2/98
f 5/3/6 6/7/6 137/7/6 138/3/6
f 98/1/99 97/2/99 230/2/99 222/1/99
f 22/12/19 21/4/19 153/4/19 154/12/19
f 38/6/7 37/10/7 169/10/7 170/6/7
f 4/8/100 103/46/100 237/46/100 135/8/100
f 13/17/101 7/6/101 139/6/101 141/17/101
f 103/46/102 104/44/102 238/44/102 237/46/102
f 119/5/7 120/5/7 252/5/7 251/5/7
f 8/4/103 18/15/103 142/15/103 140/4/103
f 104/44/104 105/42/104 239/42/104 238/44/104
f 105/42/105 106/41/105 240/41/105 239/42/105
f 106/41/106 107/39/106 235/39/106 240/41/106
f 108/53/107 1/20/107 134/20/107 241/53/107
f 109/3/108 108/53/108 241/53/108 242/3/108
f 110/16/109 109/3/109 242/3/109 243/16/109
f 111/54/110 110/16/110 243/16/110 244/54/110
f 112/49/111 111/54/111 244/54/111 236/49/111
f 40/12/6 39/4/6 171/4/6 172/12/6
f 9/1/112 10/2/112 144/2/112 143/1/112
